<svg xmlns="http://www.w3.org/2000/svg" version="1.1" xmlns:xlink="http://www.w3.org/1999/xlink" xmlns:svgjs="http://svgjs.com/svgjs" width="1920" height="1080" preserveAspectRatio="none" viewBox="0 0 1920 1080"><g mask="url(&quot;#SvgjsMask1018&quot;)" fill="none"><rect width="1920" height="1080" x="0" y="0" fill="url(#SvgjsLinearGradient1019)"></rect><path d="M1920 0L986.07 0L1920 340.23z" fill="rgba(255, 255, 255, .1)"></path><path d="M986.07 0L1920 340.23L1920 389.3L721.48 0z" fill="rgba(255, 255, 255, .075)"></path><path d="M721.48 0L1920 389.3L1920 521.82L366.92 0z" fill="rgba(255, 255, 255, .05)"></path><path d="M366.9200000000001 0L1920 521.82L1920 596.73L178.99000000000007 0z" fill="rgba(255, 255, 255, .025)"></path><path d="M0 1080L346.04 1080L0 783.2z" fill="rgba(0, 0, 0, .1)"></path><path d="M0 783.2L346.04 1080L748.8199999999999 1080L0 710.87z" fill="rgba(0, 0, 0, .075)"></path><path d="M0 710.87L748.8199999999999 1080L1299.2199999999998 1080L0 403.69z" fill="rgba(0, 0, 0, .05)"></path><path d="M0 403.69000000000005L1299.2199999999998 1080L1358.7599999999998 1080L0 355.37000000000006z" fill="rgba(0, 0, 0, .025)"></path></g><defs><mask id="SvgjsMask1018"><rect width="1920" height="1080" fill="#ffffff"></rect></mask><linearGradient x1="10.94%" y1="-19.44%" x2="89.06%" y2="119.44%" gradientUnits="userSpaceOnUse" id="SvgjsLinearGradient1019"><stop stop-color="rgba(149, 71, 73, 1)" offset="0"></stop><stop stop-color="rgba(174, 48, 52, 1)" offset="1"></stop></linearGradient></defs></svg>